<svg width="55" height="43" viewBox="0 0 55 43" fill="none" xmlns="http://www.w3.org/2000/svg">
<path d="M54.9634 25.154V36.5272C54.9634 37.0331 54.5532 37.4433 54.0473 37.4433H51.8717C51.3658 37.4433 50.9556 37.0331 50.9556 36.5272C50.9556 36.0213 51.3658 35.6112 51.8717 35.6112H53.1313V25.154C53.1313 23.6919 52.4262 22.307 51.2453 21.4497C47.7387 18.904 41.0014 15.0775 32.6376 15.5131L33.2341 20.1059C33.2992 20.6075 32.9453 21.0672 32.4436 21.1323C31.9417 21.1975 31.4823 20.8434 31.4172 20.3419L30.8111 15.6751C25.4085 16.3522 20.3532 18.7206 16.1382 22.5684H39.2829C40.6739 22.5684 41.973 21.9476 42.8468 20.8652C43.1646 20.4715 43.7413 20.41 44.135 20.7278C44.5287 21.0455 44.5902 21.6223 44.2724 22.016C43.0491 23.5314 41.2305 24.4005 39.283 24.4005H14.0358L3.8448 27.2313C2.65977 27.5605 1.83211 28.6494 1.83211 29.8793V35.3708H3.2062C3.71209 35.3708 4.12225 35.781 4.12225 36.2869C4.12225 36.7928 3.71209 37.2029 3.2062 37.2029H0.916056C0.410164 37.2029 0 36.7928 0 36.2869V29.8793C0 27.8295 1.37935 26.0147 3.35437 25.4661L13.4088 22.6731C23.3875 12.2514 38.8789 10.2079 52.3216 19.9671C53.9757 21.168 54.9634 23.107 54.9634 25.154ZM18.8937 36.3092C18.8937 39.8449 16.017 42.7216 12.4813 42.7216C8.94552 42.7216 6.06887 39.8449 6.06887 36.3092C6.06887 32.7734 8.94552 29.8968 12.4813 29.8968C16.017 29.8968 18.8937 32.7734 18.8937 36.3092ZM17.0615 36.3092C17.0615 33.7836 15.0068 31.7289 12.4813 31.7289C9.9557 31.7289 7.90098 33.7836 7.90098 36.3092C7.90098 38.8348 9.9557 40.8895 12.4813 40.8895C15.0068 40.8895 17.0615 38.8349 17.0615 36.3092ZM48.8945 36.3092C48.8945 39.8449 46.0178 42.7216 42.4821 42.7216C38.9464 42.7216 36.0697 39.8449 36.0697 36.3092C36.0697 32.7734 38.9464 29.8968 42.4821 29.8968C46.0178 29.8968 48.8945 32.7734 48.8945 36.3092ZM47.0624 36.3092C47.0624 33.7836 45.0077 31.7289 42.4821 31.7289C39.9565 31.7289 37.9018 33.7836 37.9018 36.3092C37.9018 38.8348 39.9565 40.8895 42.4821 40.8895C45.0077 40.8895 47.0624 38.8349 47.0624 36.3092ZM33.5506 35.6221H21.7563C21.2504 35.6221 20.8403 36.0323 20.8403 36.5382C20.8403 37.0441 21.2504 37.4543 21.7563 37.4543H33.5506C34.0564 37.4543 34.4666 37.0441 34.4666 36.5382C34.4666 36.0323 34.0564 35.6221 33.5506 35.6221ZM48.3342 9.83002C49.4057 10.9015 48.6561 12.7621 47.1196 12.7621C45.601 12.7621 44.8224 10.9127 45.9051 9.83002C46.2296 9.50562 46.6609 9.32688 47.1196 9.32688C47.8912 9.32699 48.3342 9.83002 48.3342 9.83002ZM51.3301 8.12971C51.6879 7.77199 51.6879 7.1919 51.3301 6.83418C49.0029 4.50705 45.2366 4.50694 42.9093 6.83418C42.5515 7.1919 42.5515 7.77187 42.9093 8.12971C43.267 8.48743 43.847 8.48743 44.2047 8.12971C45.8159 6.5186 48.4232 6.51848 50.0345 8.12971C50.3922 8.48743 50.9722 8.48743 51.3301 8.12971ZM40.8041 4.72897C44.2948 1.23834 49.9443 1.23811 53.4353 4.72897C53.6141 4.90783 53.8485 4.99726 54.083 4.99726C54.8918 4.99726 55.3095 4.01215 54.7308 3.43343C50.5242 -0.773094 43.7156 -0.773552 39.5087 3.43343C39.1509 3.79115 39.1509 4.37113 39.5087 4.72897C39.8663 5.0868 40.4464 5.0868 40.8041 4.72897Z" fill="#22B2BE"/>
</svg>
